<svg width="391" height="61" viewBox="0 0 391 61" fill="none" xmlns="http://www.w3.org/2000/svg">
<path d="M28.8633 2.08592C28.0781 2.36718 27.3867 2.84764 27.0469 3.35155L26.7773 3.74999H23.9883H21.1992L20.918 4.04296C20.6719 4.27733 20.625 4.44139 20.625 4.98046V5.62499H14.8242H9.01172L8.73047 5.91796L8.4375 6.19921V31.875V57.5508L8.73047 57.832L9.01172 58.125H30H50.9883L51.2695 57.832L51.5625 57.5508V31.875V6.19921L51.2695 5.91796L50.9883 5.62499H45.1758H39.375V4.98046C39.375 4.44139 39.3281 4.27733 39.082 4.04296L38.8008 3.74999H36.0117L33.2227 3.73827L32.8477 3.22264C32.0508 2.14452 30.1875 1.61717 28.8633 2.08592ZM31.0898 4.13671C31.3125 4.30077 31.582 4.62889 31.6875 4.85155C32.0508 5.61327 32.1094 5.62499 34.9453 5.62499H37.5V8.43749V11.25H30H22.5V8.43749V5.62499H25.0664C27.4805 5.62499 27.6445 5.61327 27.9375 5.37889C28.1016 5.24999 28.2422 5.08593 28.2422 5.01561C28.2422 4.76952 28.8633 4.07811 29.2266 3.91405C29.7656 3.66796 30.6094 3.77343 31.0898 4.13671ZM20.625 8.43749V9.37499H16.6992H12.7617L12.4805 9.66796L12.1875 9.94921V31.875V53.8008L12.4805 54.082L12.7617 54.375H26.2734H39.7852L43.793 50.3555L47.8125 46.3477V28.1484V9.94921L47.5195 9.66796L47.2383 9.37499H43.3008H39.375V8.43749V7.49999H44.5312H49.6875V31.875V56.25H30H10.3125V31.875V7.49999H15.4688H20.625V8.43749ZM20.625 11.8945C20.625 12.4336 20.6719 12.5976 20.918 12.832L21.1992 13.125H30H38.8008L39.082 12.832C39.3281 12.5976 39.375 12.4336 39.375 11.8945V11.25H42.6562H45.9375V28.125V45H42.4805H39.0117L38.7305 45.293L38.4375 45.5742V49.043V52.5H26.25H14.0625V31.875V11.25H17.3438H20.625V11.8945ZM44.5312 46.9102C44.5312 46.9219 43.582 47.8828 42.4219 49.043L40.3125 51.1523V49.0078V46.875H42.4219C43.582 46.875 44.5312 46.8867 44.5312 46.9102Z" fill="black"/>
<path d="M20.1328 16.9922C17.8008 18.1641 16.1367 19.0781 16.0547 19.207C15.9844 19.3594 15.9375 21.1758 15.9375 24.4102C15.9375 28.9805 15.9492 29.4023 16.1484 29.625C16.4062 29.9297 24.0469 33.8672 24.3633 33.8672C24.7031 33.8672 32.2734 30.0703 32.5664 29.7422C32.8125 29.4961 32.8125 29.3789 32.8125 24.457C32.8125 21.1875 32.7656 19.3594 32.6953 19.207C32.543 18.9258 24.7266 15 24.3516 15.0117C24.1992 15.0117 22.3008 15.9023 20.1328 16.9922ZM27.0117 18.3047C28.4648 19.0313 29.6484 19.6523 29.6484 19.6875C29.6484 19.7227 28.4648 20.3438 27.0117 21.0703L24.375 22.3828L23.6133 22.0078C23.1914 21.7969 22.8516 21.5977 22.8516 21.5625C22.8516 21.5273 23.2734 21.2813 23.7891 21.0352C24.3047 20.7891 24.7266 20.5313 24.7266 20.4844C24.7266 20.4023 24.0469 18.9844 23.9648 18.8906C23.9414 18.8672 23.1914 19.2305 22.2773 19.6758L20.625 20.5078L19.8633 20.1328C19.4414 19.9219 19.1016 19.7227 19.1016 19.6875C19.1016 19.6406 24.1758 17.0391 24.3398 17.0039C24.3633 16.9922 25.5586 17.5898 27.0117 18.3047ZM19.6875 23.7305V25.3125H20.625H21.5625V24.1992V23.0859L22.5 23.5547L23.4375 24.0234V27.7148V31.4063L21.3633 30.3398C20.2148 29.7422 18.9492 29.0859 18.5508 28.8633L17.8125 28.4648V24.832V21.2109L18.75 21.6797L19.6875 22.1484V23.7305ZM30.9375 24.9023V28.5938L28.125 30L25.3125 31.4063V27.7148V24.0234L28.1016 22.6289C29.625 21.8555 30.8906 21.2227 30.9141 21.2227C30.9258 21.2109 30.9375 22.875 30.9375 24.9023Z" fill="black"/>
<path d="M34.9805 19.9805C34.793 20.1562 34.6875 20.4023 34.6875 20.625C34.6875 20.8477 34.793 21.0938 34.9805 21.2695L35.2617 21.5625H39.375H43.4883L43.7695 21.2695C43.957 21.0938 44.0625 20.8477 44.0625 20.625C44.0625 20.4023 43.957 20.1562 43.7695 19.9805L43.4883 19.6875H39.375H35.2617L34.9805 19.9805Z" fill="black"/>
<path d="M34.9805 23.7305C34.793 23.9062 34.6875 24.1523 34.6875 24.375C34.6875 24.5977 34.793 24.8438 34.9805 25.0195L35.2617 25.3125H39.375H43.4883L43.7695 25.0195C43.957 24.8438 44.0625 24.5977 44.0625 24.375C44.0625 24.1523 43.957 23.9062 43.7695 23.7305L43.4883 23.4375H39.375H35.2617L34.9805 23.7305Z" fill="black"/>
<path d="M34.9805 27.4805C34.793 27.6562 34.6875 27.9023 34.6875 28.125C34.6875 28.3477 34.793 28.5938 34.9805 28.7695L35.2617 29.0625H39.375H43.4883L43.7695 28.7695C43.957 28.5938 44.0625 28.3477 44.0625 28.125C44.0625 27.9023 43.957 27.6562 43.7695 27.4805L43.4883 27.1875H39.375H35.2617L34.9805 27.4805Z" fill="black"/>
<path d="M16.2305 39.668L15.9375 39.9492V44.0625V48.1758L16.2305 48.457L16.5117 48.75H20.625H24.7383L25.0195 48.457C25.3125 48.1758 25.3125 48.1641 25.3125 45.8906V43.6055L26.9883 42.3516C27.9023 41.6719 28.7461 41.0039 28.8633 40.875C29.1562 40.5352 29.1211 40.0078 28.7695 39.668C28.2891 39.1758 27.9492 39.2695 26.5664 40.3125L25.3125 41.25V40.6055C25.3125 40.0664 25.2656 39.9023 25.0195 39.668L24.7383 39.375H20.625H16.5117L16.2305 39.668ZM23.4375 41.9531V42.6562L22.0898 43.6641L20.7422 44.6836L19.9336 43.8984C19.0078 43.0078 18.6094 42.9023 18.1055 43.418L17.8125 43.6992V42.4805V41.25H20.625H23.4375V41.9531ZM19.6289 46.2773L20.2617 46.875H19.0312H17.8125V45.6562V44.4258L18.4102 45.0586C18.7383 45.3984 19.2891 45.9492 19.6289 46.2773ZM23.4375 45.9375V46.875H22.1836H20.9414L22.1602 45.9492C22.8281 45.4336 23.3906 45.0117 23.4141 45.0117C23.4258 45 23.4375 45.4219 23.4375 45.9375Z" fill="black"/>
<path d="M30.293 40.6055C30.1055 40.7812 30 41.0273 30 41.25C30 41.4727 30.1055 41.7188 30.293 41.8945C30.5391 42.1523 30.6797 42.1875 31.4062 42.1875C32.1328 42.1875 32.2734 42.1523 32.5195 41.8945C32.707 41.7188 32.8125 41.4727 32.8125 41.25C32.8125 41.0273 32.707 40.7812 32.5195 40.6055C32.2734 40.3477 32.1328 40.3125 31.4062 40.3125C30.6797 40.3125 30.5391 40.3477 30.293 40.6055Z" fill="black"/>
<path d="M34.043 40.6055C33.8555 40.7812 33.75 41.0273 33.75 41.25C33.75 41.4727 33.8555 41.7188 34.043 41.8945L34.3242 42.1875H38.4375H42.5508L42.832 41.8945C43.0195 41.7188 43.125 41.4727 43.125 41.25C43.125 41.0273 43.0195 40.7812 42.832 40.6055L42.5508 40.3125H38.4375H34.3242L34.043 40.6055Z" fill="black"/>
<path d="M30.293 43.418C30.1055 43.5938 30 43.8398 30 44.0625C30 44.2852 30.1055 44.5312 30.293 44.707L30.5742 45H33.75H36.9258L37.207 44.707C37.3945 44.5312 37.5 44.2852 37.5 44.0625C37.5 43.8398 37.3945 43.5938 37.207 43.418L36.9258 43.125H33.75H30.5742L30.293 43.418Z" fill="black"/>
<path d="M30.293 47.168C30.1055 47.3438 30 47.5898 30 47.8125C30 48.0352 30.1055 48.2812 30.293 48.457C30.5742 48.75 30.5977 48.75 32.8125 48.75C35.0273 48.75 35.0508 48.75 35.332 48.457C35.5195 48.2812 35.625 48.0352 35.625 47.8125C35.625 47.5898 35.5195 47.3438 35.332 47.168C35.0508 46.875 35.0273 46.875 32.8125 46.875C30.5977 46.875 30.5742 46.875 30.293 47.168Z" fill="black"/>
<path d="M64.7 48V13H79.1C82.2 13 84.85 13.5 87.05 14.5C89.2833 15.5 91 16.9333 92.2 18.8C93.4 20.6667 94 22.8833 94 25.45C94 28.0167 93.4 30.2333 92.2 32.1C91 33.9667 89.2833 35.4 87.05 36.4C84.85 37.4 82.2 37.9 79.1 37.9H68.3L71.2 34.85V48H64.7ZM71.2 35.55L68.3 32.4H78.8C81.6667 32.4 83.8167 31.8 85.25 30.6C86.7167 29.3667 87.45 27.65 87.45 25.45C87.45 23.2167 86.7167 21.5 85.25 20.3C83.8167 19.1 81.6667 18.5 78.8 18.5H68.3L71.2 15.3V35.55ZM115.492 48.5C110.692 48.5 106.926 47.15 104.192 44.45C101.492 41.75 100.142 37.85 100.142 32.75V13H106.642V32.5C106.642 36.1 107.409 38.7167 108.942 40.35C110.509 41.9833 112.709 42.8 115.542 42.8C118.376 42.8 120.559 41.9833 122.092 40.35C123.626 38.7167 124.392 36.1 124.392 32.5V13H130.792V32.75C130.792 37.85 129.426 41.75 126.692 44.45C123.992 47.15 120.259 48.5 115.492 48.5ZM139.895 48V13H154.295C157.395 13 160.045 13.5 162.245 14.5C164.479 15.5 166.195 16.9333 167.395 18.8C168.595 20.6667 169.195 22.8833 169.195 25.45C169.195 28.0167 168.595 30.2333 167.395 32.1C166.195 33.9333 164.479 35.35 162.245 36.35C160.045 37.3167 157.395 37.8 154.295 37.8H143.495L146.395 34.85V48H139.895ZM162.795 48L153.945 35.3H160.895L169.795 48H162.795ZM146.395 35.55L143.495 32.45H153.995C156.862 32.45 159.012 31.8333 160.445 30.6C161.912 29.3667 162.645 27.65 162.645 25.45C162.645 23.2167 161.912 21.5 160.445 20.3C159.012 19.1 156.862 18.5 153.995 18.5H143.495L146.395 15.3V35.55ZM176.468 48V13H190.868C193.968 13 196.618 13.5 198.818 14.5C201.051 15.5 202.768 16.9333 203.968 18.8C205.168 20.6667 205.768 22.8833 205.768 25.45C205.768 28.0167 205.168 30.2333 203.968 32.1C202.768 33.9667 201.051 35.4 198.818 36.4C196.618 37.4 193.968 37.9 190.868 37.9H180.068L182.968 34.85V48H176.468ZM182.968 35.55L180.068 32.4H190.568C193.434 32.4 195.584 31.8 197.018 30.6C198.484 29.3667 199.218 27.65 199.218 25.45C199.218 23.2167 198.484 21.5 197.018 20.3C195.584 19.1 193.434 18.5 190.568 18.5H180.068L182.968 15.3V35.55ZM212.259 48V13H218.759V42.5H237.059V48H212.259ZM248.19 27.55H265.59V32.9H248.19V27.55ZM248.69 42.55H268.44V48H242.19V13H267.74V18.45H248.69V42.55ZM275.686 48V13H290.986C294.786 13 298.12 13.7333 300.986 15.2C303.853 16.6667 306.086 18.7 307.686 21.3C309.286 23.9 310.086 26.9667 310.086 30.5C310.086 34 309.286 37.0667 307.686 39.7C306.086 42.3 303.853 44.3333 300.986 45.8C298.12 47.2667 294.786 48 290.986 48H275.686ZM282.186 42.5H290.686C293.32 42.5 295.586 42 297.486 41C299.42 40 300.903 38.6 301.936 36.8C303.003 35 303.536 32.9 303.536 30.5C303.536 28.0667 303.003 25.9667 301.936 24.2C300.903 22.4 299.42 21 297.486 20C295.586 19 293.32 18.5 290.686 18.5H282.186V42.5ZM333.395 48.5C330.662 48.5 328.145 48.05 325.845 47.15C323.545 46.25 321.545 45 319.845 43.4C318.145 41.7667 316.828 39.8667 315.895 37.7C314.962 35.5 314.495 33.1 314.495 30.5C314.495 27.9 314.962 25.5167 315.895 23.35C316.828 21.15 318.145 19.25 319.845 17.65C321.545 16.0167 323.545 14.75 325.845 13.85C328.145 12.95 330.645 12.5 333.345 12.5C336.078 12.5 338.578 12.95 340.845 13.85C343.145 14.75 345.145 16.0167 346.845 17.65C348.545 19.25 349.862 21.15 350.795 23.35C351.728 25.5167 352.195 27.9 352.195 30.5C352.195 33.1 351.728 35.5 350.795 37.7C349.862 39.9 348.545 41.8 346.845 43.4C345.145 45 343.145 46.25 340.845 47.15C338.578 48.05 336.095 48.5 333.395 48.5ZM333.345 42.8C335.112 42.8 336.745 42.5 338.245 41.9C339.745 41.3 341.045 40.45 342.145 39.35C343.245 38.2167 344.095 36.9167 344.695 35.45C345.328 33.95 345.645 32.3 345.645 30.5C345.645 28.7 345.328 27.0667 344.695 25.6C344.095 24.1 343.245 22.8 342.145 21.7C341.045 20.5667 339.745 19.7 338.245 19.1C336.745 18.5 335.112 18.2 333.345 18.2C331.578 18.2 329.945 18.5 328.445 19.1C326.978 19.7 325.678 20.5667 324.545 21.7C323.445 22.8 322.578 24.1 321.945 25.6C321.345 27.0667 321.045 28.7 321.045 30.5C321.045 32.2667 321.345 33.9 321.945 35.4C322.578 36.9 323.445 38.2167 324.545 39.35C325.645 40.45 326.945 41.3 328.445 41.9C329.945 42.5 331.578 42.8 333.345 42.8ZM375.285 48.5C372.618 48.5 370.135 48.0667 367.835 47.2C365.568 46.3 363.585 45.05 361.885 43.45C360.218 41.8167 358.918 39.9 357.985 37.7C357.051 35.5 356.585 33.1 356.585 30.5C356.585 27.9 357.051 25.5 357.985 23.3C358.918 21.1 360.235 19.2 361.935 17.6C363.635 15.9667 365.618 14.7167 367.885 13.85C370.151 12.95 372.635 12.5 375.335 12.5C378.201 12.5 380.818 13 383.185 14C385.551 14.9667 387.551 16.4167 389.185 18.35L384.985 22.3C383.718 20.9333 382.301 19.9167 380.735 19.25C379.168 18.55 377.468 18.2 375.635 18.2C373.801 18.2 372.118 18.5 370.585 19.1C369.085 19.7 367.768 20.55 366.635 21.65C365.535 22.75 364.668 24.05 364.035 25.55C363.435 27.05 363.135 28.7 363.135 30.5C363.135 32.3 363.435 33.95 364.035 35.45C364.668 36.95 365.535 38.25 366.635 39.35C367.768 40.45 369.085 41.3 370.585 41.9C372.118 42.5 373.801 42.8 375.635 42.8C377.468 42.8 379.168 42.4667 380.735 41.8C382.301 41.1 383.718 40.05 384.985 38.65L389.185 42.65C387.551 44.55 385.551 46 383.185 47C380.818 48 378.185 48.5 375.285 48.5Z" fill="black"/>
</svg>
